{
	"asset":{
		"generator":"Khronos glTF Blender I/O v4.2.60",
		"version":"2.0"
	},
	"scene":0,
	"scenes":[
		{
			"name":"Scene",
			"nodes":[
				10,
				11
			]
		}
	],
	"nodes":[
		{
			"mesh":0,
			"name":"unit_rover",
			"scale":[
				8.194352149963379,
				8.194352149963379,
				8.194352149963379
			],
			"translation":[
				0,
				-0.4583243727684021,
				0
			]
		},
		{
			"children":[
				0
			],
			"name":"Bone",
			"translation":[
				0,
				0.4583244025707245,
				0
			]
		},
		{
			"mesh":1,
			"name":"wheel.003",
			"rotation":[
				0,
				0,
				-0.7071068286895752,
				0.7071067094802856
			],
			"scale":[
				0.4261339604854584,
				0.4261339604854584,
				0.4261339604854584
			],
			"translation":[
				-1.7881393432617188e-07,
				0,
				-1.1920928955078125e-07
			]
		},
		{
			"children":[
				2
			],
			"name":"Bone.001",
			"translation":[
				-0.8904310464859009,
				0.4155142903327942,
				-0.5834985375404358
			]
		},
		{
			"mesh":2,
			"name":"wheel.002",
			"rotation":[
				0,
				0,
				-0.7071068286895752,
				0.7071067094802856
			],
			"scale":[
				0.4261339604854584,
				0.4261339604854584,
				0.4261339604854584
			],
			"translation":[
				-1.1920928955078125e-07,
				0,
				0
			]
		},
		{
			"children":[
				4
			],
			"name":"Bone.002",
			"translation":[
				-0.8974609971046448,
				0.4155142903327942,
				0.6166720390319824
			]
		},
		{
			"mesh":3,
			"name":"wheel.001",
			"rotation":[
				0,
				0,
				0.7071067690849304,
				0.7071067690849304
			],
			"scale":[
				0.4261339604854584,
				0.4261339604854584,
				0.4261339604854584
			]
		},
		{
			"children":[
				6
			],
			"name":"Bone.003",
			"translation":[
				0.8894299864768982,
				0.4155142903327942,
				-0.6004160046577454
			]
		},
		{
			"mesh":4,
			"name":"wheel",
			"rotation":[
				0,
				0,
				0.7071067690849304,
				0.7071067690849304
			],
			"scale":[
				0.4261339604854584,
				0.4261339604854584,
				0.4261339604854584
			]
		},
		{
			"children":[
				8
			],
			"name":"Bone.004",
			"translation":[
				0.8768259882926941,
				0.4155142903327942,
				0.6166720390319824
			]
		},
		{
			"children":[
				1,
				3,
				5,
				7,
				9
			],
			"name":"Armature",
			"scale":[
				0.6294242143630981,
				0.6294242143630981,
				0.6294242143630981
			]
		},
		{
			"mesh":5,
			"name":"Plane",
			"scale":[
				7.312099456787109,
				7.312099456787109,
				7.312099456787109
			]
		}
	],
	"animations":[
		{
			"channels":[
				{
					"sampler":0,
					"target":{
						"node":1,
						"path":"translation"
					}
				},
				{
					"sampler":1,
					"target":{
						"node":1,
						"path":"rotation"
					}
				},
				{
					"sampler":2,
					"target":{
						"node":1,
						"path":"scale"
					}
				},
				{
					"sampler":3,
					"target":{
						"node":3,
						"path":"translation"
					}
				},
				{
					"sampler":4,
					"target":{
						"node":3,
						"path":"rotation"
					}
				},
				{
					"sampler":5,
					"target":{
						"node":3,
						"path":"scale"
					}
				},
				{
					"sampler":6,
					"target":{
						"node":5,
						"path":"translation"
					}
				},
				{
					"sampler":7,
					"target":{
						"node":5,
						"path":"rotation"
					}
				},
				{
					"sampler":8,
					"target":{
						"node":5,
						"path":"scale"
					}
				},
				{
					"sampler":9,
					"target":{
						"node":7,
						"path":"translation"
					}
				},
				{
					"sampler":10,
					"target":{
						"node":7,
						"path":"rotation"
					}
				},
				{
					"sampler":11,
					"target":{
						"node":7,
						"path":"scale"
					}
				},
				{
					"sampler":12,
					"target":{
						"node":9,
						"path":"translation"
					}
				},
				{
					"sampler":13,
					"target":{
						"node":9,
						"path":"rotation"
					}
				},
				{
					"sampler":14,
					"target":{
						"node":9,
						"path":"scale"
					}
				}
			],
			"name":"Drive",
			"samplers":[
				{
					"input":21,
					"interpolation":"STEP",
					"output":22
				},
				{
					"input":21,
					"interpolation":"STEP",
					"output":23
				},
				{
					"input":21,
					"interpolation":"STEP",
					"output":24
				},
				{
					"input":21,
					"interpolation":"STEP",
					"output":25
				},
				{
					"input":26,
					"interpolation":"LINEAR",
					"output":27
				},
				{
					"input":21,
					"interpolation":"STEP",
					"output":28
				},
				{
					"input":21,
					"interpolation":"STEP",
					"output":29
				},
				{
					"input":26,
					"interpolation":"LINEAR",
					"output":30
				},
				{
					"input":21,
					"interpolation":"STEP",
					"output":31
				},
				{
					"input":21,
					"interpolation":"STEP",
					"output":32
				},
				{
					"input":26,
					"interpolation":"LINEAR",
					"output":33
				},
				{
					"input":21,
					"interpolation":"STEP",
					"output":34
				},
				{
					"input":21,
					"interpolation":"STEP",
					"output":35
				},
				{
					"input":26,
					"interpolation":"LINEAR",
					"output":36
				},
				{
					"input":21,
					"interpolation":"STEP",
					"output":37
				}
			]
		},
		{
			"channels":[
				{
					"sampler":0,
					"target":{
						"node":1,
						"path":"translation"
					}
				},
				{
					"sampler":1,
					"target":{
						"node":1,
						"path":"rotation"
					}
				},
				{
					"sampler":2,
					"target":{
						"node":1,
						"path":"scale"
					}
				},
				{
					"sampler":3,
					"target":{
						"node":3,
						"path":"translation"
					}
				},
				{
					"sampler":4,
					"target":{
						"node":3,
						"path":"rotation"
					}
				},
				{
					"sampler":5,
					"target":{
						"node":3,
						"path":"scale"
					}
				},
				{
					"sampler":6,
					"target":{
						"node":5,
						"path":"translation"
					}
				},
				{
					"sampler":7,
					"target":{
						"node":5,
						"path":"rotation"
					}
				},
				{
					"sampler":8,
					"target":{
						"node":5,
						"path":"scale"
					}
				},
				{
					"sampler":9,
					"target":{
						"node":7,
						"path":"translation"
					}
				},
				{
					"sampler":10,
					"target":{
						"node":7,
						"path":"rotation"
					}
				},
				{
					"sampler":11,
					"target":{
						"node":7,
						"path":"scale"
					}
				},
				{
					"sampler":12,
					"target":{
						"node":9,
						"path":"translation"
					}
				},
				{
					"sampler":13,
					"target":{
						"node":9,
						"path":"rotation"
					}
				},
				{
					"sampler":14,
					"target":{
						"node":9,
						"path":"scale"
					}
				}
			],
			"name":"Rotate",
			"samplers":[
				{
					"input":21,
					"interpolation":"LINEAR",
					"output":38
				},
				{
					"input":26,
					"interpolation":"LINEAR",
					"output":39
				},
				{
					"input":21,
					"interpolation":"STEP",
					"output":40
				},
				{
					"input":21,
					"interpolation":"STEP",
					"output":41
				},
				{
					"input":21,
					"interpolation":"STEP",
					"output":42
				},
				{
					"input":21,
					"interpolation":"STEP",
					"output":43
				},
				{
					"input":21,
					"interpolation":"STEP",
					"output":44
				},
				{
					"input":21,
					"interpolation":"STEP",
					"output":45
				},
				{
					"input":21,
					"interpolation":"STEP",
					"output":46
				},
				{
					"input":21,
					"interpolation":"STEP",
					"output":47
				},
				{
					"input":21,
					"interpolation":"STEP",
					"output":48
				},
				{
					"input":21,
					"interpolation":"STEP",
					"output":49
				},
				{
					"input":21,
					"interpolation":"STEP",
					"output":50
				},
				{
					"input":21,
					"interpolation":"STEP",
					"output":51
				},
				{
					"input":21,
					"interpolation":"STEP",
					"output":52
				}
			]
		}
	],
	"materials":[
		{
			"doubleSided":true,
			"name":"Material",
			"pbrMetallicRoughness":{
				"baseColorTexture":{
					"index":0
				},
				"metallicFactor":0,
				"roughnessFactor":0.5
			}
		}
	],
	"meshes":[
		{
			"name":"Mesh rover.002",
			"primitives":[
				{
					"attributes":{
						"POSITION":0,
						"NORMAL":1,
						"TEXCOORD_0":2
					},
					"indices":3,
					"material":0
				}
			]
		},
		{
			"name":"Cylinder.003",
			"primitives":[
				{
					"attributes":{
						"POSITION":4,
						"NORMAL":5,
						"TEXCOORD_0":6
					},
					"indices":7,
					"material":0
				}
			]
		},
		{
			"name":"Cylinder.002",
			"primitives":[
				{
					"attributes":{
						"POSITION":8,
						"NORMAL":9,
						"TEXCOORD_0":10
					},
					"indices":7,
					"material":0
				}
			]
		},
		{
			"name":"Cylinder.001",
			"primitives":[
				{
					"attributes":{
						"POSITION":11,
						"NORMAL":12,
						"TEXCOORD_0":13
					},
					"indices":7,
					"material":0
				}
			]
		},
		{
			"name":"Cylinder.042",
			"primitives":[
				{
					"attributes":{
						"POSITION":14,
						"NORMAL":15,
						"TEXCOORD_0":16
					},
					"indices":7,
					"material":0
				}
			]
		},
		{
			"name":"Plane",
			"primitives":[
				{
					"attributes":{
						"POSITION":17,
						"NORMAL":18,
						"TEXCOORD_0":19
					},
					"indices":20,
					"material":0
				}
			]
		}
	],
	"textures":[
		{
			"sampler":0,
			"source":0
		}
	],
	"images":[
		{
			"bufferView":4,
			"mimeType":"image/jpeg",
			"name":"texture-atlas-export.jpg",
			"uri":"../../../../Downloads/texture-atlas-export.jpg"
		}
	],
	"skins":[
		{
			"inverseBindMatrices":53,
			"joints":[
				1,
				3,
				5,
				7,
				9
			],
			"name":"Armature"
		}
	],
	"accessors":[
		{
			"bufferView":0,
			"componentType":5126,
			"count":367,
			"max":[
				0.10000000149011612,
				0.39196261763572693,
				0.17499946057796478
			],
			"min":[
				-0.10000000149011612,
				0.05000000074505806,
				-0.17500053346157074
			],
			"type":"VEC3"
		},
		{
			"bufferView":1,
			"componentType":5126,
			"count":367,
			"type":"VEC3"
		},
		{
			"bufferView":2,
			"componentType":5126,
			"count":367,
			"type":"VEC2"
		},
		{
			"bufferView":3,
			"componentType":5123,
			"count":633,
			"type":"SCALAR"
		},
		{
			"bufferView":5,
			"componentType":5126,
			"count":36,
			"max":[
				0.8660253882408142,
				0.16849738359451294,
				1
			],
			"min":[
				-0.866025447845459,
				-1,
				-1
			],
			"type":"VEC3"
		},
		{
			"bufferView":6,
			"componentType":5126,
			"count":36,
			"type":"VEC3"
		},
		{
			"bufferView":7,
			"componentType":5126,
			"count":36,
			"type":"VEC2"
		},
		{
			"bufferView":8,
			"componentType":5123,
			"count":60,
			"type":"SCALAR"
		},
		{
			"bufferView":9,
			"componentType":5126,
			"count":36,
			"max":[
				0.8660253882408142,
				0.16849738359451294,
				1
			],
			"min":[
				-0.866025447845459,
				-1,
				-1
			],
			"type":"VEC3"
		},
		{
			"bufferView":10,
			"componentType":5126,
			"count":36,
			"type":"VEC3"
		},
		{
			"bufferView":11,
			"componentType":5126,
			"count":36,
			"type":"VEC2"
		},
		{
			"bufferView":12,
			"componentType":5126,
			"count":36,
			"max":[
				0.8660253882408142,
				0.16849738359451294,
				1
			],
			"min":[
				-0.866025447845459,
				-1,
				-1
			],
			"type":"VEC3"
		},
		{
			"bufferView":13,
			"componentType":5126,
			"count":36,
			"type":"VEC3"
		},
		{
			"bufferView":14,
			"componentType":5126,
			"count":36,
			"type":"VEC2"
		},
		{
			"bufferView":15,
			"componentType":5126,
			"count":36,
			"max":[
				0.8660253882408142,
				0.16849738359451294,
				1
			],
			"min":[
				-0.866025447845459,
				-1,
				-1
			],
			"type":"VEC3"
		},
		{
			"bufferView":16,
			"componentType":5126,
			"count":36,
			"type":"VEC3"
		},
		{
			"bufferView":17,
			"componentType":5126,
			"count":36,
			"type":"VEC2"
		},
		{
			"bufferView":18,
			"componentType":5126,
			"count":28,
			"max":[
				0.9999999403953552,
				0.4813087284564972,
				1
			],
			"min":[
				-1,
				-0.0061600953340530396,
				-1
			],
			"type":"VEC3"
		},
		{
			"bufferView":19,
			"componentType":5126,
			"count":28,
			"type":"VEC3"
		},
		{
			"bufferView":20,
			"componentType":5126,
			"count":28,
			"type":"VEC2"
		},
		{
			"bufferView":21,
			"componentType":5123,
			"count":54,
			"type":"SCALAR"
		},
		{
			"bufferView":22,
			"componentType":5126,
			"count":2,
			"max":[
				3.3333333333333335
			],
			"min":[
				0
			],
			"type":"SCALAR"
		},
		{
			"bufferView":23,
			"componentType":5126,
			"count":2,
			"type":"VEC3"
		},
		{
			"bufferView":24,
			"componentType":5126,
			"count":2,
			"type":"VEC4"
		},
		{
			"bufferView":25,
			"componentType":5126,
			"count":2,
			"type":"VEC3"
		},
		{
			"bufferView":26,
			"componentType":5126,
			"count":2,
			"type":"VEC3"
		},
		{
			"bufferView":27,
			"componentType":5126,
			"count":81,
			"max":[
				3.3333333333333335
			],
			"min":[
				0
			],
			"type":"SCALAR"
		},
		{
			"bufferView":28,
			"componentType":5126,
			"count":81,
			"type":"VEC4"
		},
		{
			"bufferView":29,
			"componentType":5126,
			"count":2,
			"type":"VEC3"
		},
		{
			"bufferView":30,
			"componentType":5126,
			"count":2,
			"type":"VEC3"
		},
		{
			"bufferView":31,
			"componentType":5126,
			"count":81,
			"type":"VEC4"
		},
		{
			"bufferView":32,
			"componentType":5126,
			"count":2,
			"type":"VEC3"
		},
		{
			"bufferView":33,
			"componentType":5126,
			"count":2,
			"type":"VEC3"
		},
		{
			"bufferView":34,
			"componentType":5126,
			"count":81,
			"type":"VEC4"
		},
		{
			"bufferView":35,
			"componentType":5126,
			"count":2,
			"type":"VEC3"
		},
		{
			"bufferView":36,
			"componentType":5126,
			"count":2,
			"type":"VEC3"
		},
		{
			"bufferView":37,
			"componentType":5126,
			"count":81,
			"type":"VEC4"
		},
		{
			"bufferView":38,
			"componentType":5126,
			"count":2,
			"type":"VEC3"
		},
		{
			"bufferView":39,
			"componentType":5126,
			"count":2,
			"type":"VEC3"
		},
		{
			"bufferView":40,
			"componentType":5126,
			"count":81,
			"type":"VEC4"
		},
		{
			"bufferView":41,
			"componentType":5126,
			"count":2,
			"type":"VEC3"
		},
		{
			"bufferView":42,
			"componentType":5126,
			"count":2,
			"type":"VEC3"
		},
		{
			"bufferView":43,
			"componentType":5126,
			"count":2,
			"type":"VEC4"
		},
		{
			"bufferView":44,
			"componentType":5126,
			"count":2,
			"type":"VEC3"
		},
		{
			"bufferView":45,
			"componentType":5126,
			"count":2,
			"type":"VEC3"
		},
		{
			"bufferView":46,
			"componentType":5126,
			"count":2,
			"type":"VEC4"
		},
		{
			"bufferView":47,
			"componentType":5126,
			"count":2,
			"type":"VEC3"
		},
		{
			"bufferView":48,
			"componentType":5126,
			"count":2,
			"type":"VEC3"
		},
		{
			"bufferView":49,
			"componentType":5126,
			"count":2,
			"type":"VEC4"
		},
		{
			"bufferView":50,
			"componentType":5126,
			"count":2,
			"type":"VEC3"
		},
		{
			"bufferView":51,
			"componentType":5126,
			"count":2,
			"type":"VEC3"
		},
		{
			"bufferView":52,
			"componentType":5126,
			"count":2,
			"type":"VEC4"
		},
		{
			"bufferView":53,
			"componentType":5126,
			"count":2,
			"type":"VEC3"
		},
		{
			"bufferView":54,
			"componentType":5126,
			"count":5,
			"type":"MAT4"
		}
	],
	"bufferViews":[
		{
			"buffer":0,
			"byteLength":4404,
			"byteOffset":0,
			"target":34962
		},
		{
			"buffer":0,
			"byteLength":4404,
			"byteOffset":4404,
			"target":34962
		},
		{
			"buffer":0,
			"byteLength":2936,
			"byteOffset":8808,
			"target":34962
		},
		{
			"buffer":0,
			"byteLength":1266,
			"byteOffset":11744,
			"target":34963
		},
		{
			"buffer":0,
			"byteLength":645,
			"byteOffset":13012
		},
		{
			"buffer":0,
			"byteLength":432,
			"byteOffset":13660,
			"target":34962
		},
		{
			"buffer":0,
			"byteLength":432,
			"byteOffset":14092,
			"target":34962
		},
		{
			"buffer":0,
			"byteLength":288,
			"byteOffset":14524,
			"target":34962
		},
		{
			"buffer":0,
			"byteLength":120,
			"byteOffset":14812,
			"target":34963
		},
		{
			"buffer":0,
			"byteLength":432,
			"byteOffset":14932,
			"target":34962
		},
		{
			"buffer":0,
			"byteLength":432,
			"byteOffset":15364,
			"target":34962
		},
		{
			"buffer":0,
			"byteLength":288,
			"byteOffset":15796,
			"target":34962
		},
		{
			"buffer":0,
			"byteLength":432,
			"byteOffset":16084,
			"target":34962
		},
		{
			"buffer":0,
			"byteLength":432,
			"byteOffset":16516,
			"target":34962
		},
		{
			"buffer":0,
			"byteLength":288,
			"byteOffset":16948,
			"target":34962
		},
		{
			"buffer":0,
			"byteLength":432,
			"byteOffset":17236,
			"target":34962
		},
		{
			"buffer":0,
			"byteLength":432,
			"byteOffset":17668,
			"target":34962
		},
		{
			"buffer":0,
			"byteLength":288,
			"byteOffset":18100,
			"target":34962
		},
		{
			"buffer":0,
			"byteLength":336,
			"byteOffset":18388,
			"target":34962
		},
		{
			"buffer":0,
			"byteLength":336,
			"byteOffset":18724,
			"target":34962
		},
		{
			"buffer":0,
			"byteLength":224,
			"byteOffset":19060,
			"target":34962
		},
		{
			"buffer":0,
			"byteLength":108,
			"byteOffset":19284,
			"target":34963
		},
		{
			"buffer":0,
			"byteLength":8,
			"byteOffset":19392
		},
		{
			"buffer":0,
			"byteLength":24,
			"byteOffset":19400
		},
		{
			"buffer":0,
			"byteLength":32,
			"byteOffset":19424
		},
		{
			"buffer":0,
			"byteLength":24,
			"byteOffset":19456
		},
		{
			"buffer":0,
			"byteLength":24,
			"byteOffset":19480
		},
		{
			"buffer":0,
			"byteLength":324,
			"byteOffset":19504
		},
		{
			"buffer":0,
			"byteLength":1296,
			"byteOffset":19828
		},
		{
			"buffer":0,
			"byteLength":24,
			"byteOffset":21124
		},
		{
			"buffer":0,
			"byteLength":24,
			"byteOffset":21148
		},
		{
			"buffer":0,
			"byteLength":1296,
			"byteOffset":21172
		},
		{
			"buffer":0,
			"byteLength":24,
			"byteOffset":22468
		},
		{
			"buffer":0,
			"byteLength":24,
			"byteOffset":22492
		},
		{
			"buffer":0,
			"byteLength":1296,
			"byteOffset":22516
		},
		{
			"buffer":0,
			"byteLength":24,
			"byteOffset":23812
		},
		{
			"buffer":0,
			"byteLength":24,
			"byteOffset":23836
		},
		{
			"buffer":0,
			"byteLength":1296,
			"byteOffset":23860
		},
		{
			"buffer":0,
			"byteLength":24,
			"byteOffset":25156
		},
		{
			"buffer":0,
			"byteLength":24,
			"byteOffset":25180
		},
		{
			"buffer":0,
			"byteLength":1296,
			"byteOffset":25204
		},
		{
			"buffer":0,
			"byteLength":24,
			"byteOffset":26500
		},
		{
			"buffer":0,
			"byteLength":24,
			"byteOffset":26524
		},
		{
			"buffer":0,
			"byteLength":32,
			"byteOffset":26548
		},
		{
			"buffer":0,
			"byteLength":24,
			"byteOffset":26580
		},
		{
			"buffer":0,
			"byteLength":24,
			"byteOffset":26604
		},
		{
			"buffer":0,
			"byteLength":32,
			"byteOffset":26628
		},
		{
			"buffer":0,
			"byteLength":24,
			"byteOffset":26660
		},
		{
			"buffer":0,
			"byteLength":24,
			"byteOffset":26684
		},
		{
			"buffer":0,
			"byteLength":32,
			"byteOffset":26708
		},
		{
			"buffer":0,
			"byteLength":24,
			"byteOffset":26740
		},
		{
			"buffer":0,
			"byteLength":24,
			"byteOffset":26764
		},
		{
			"buffer":0,
			"byteLength":32,
			"byteOffset":26788
		},
		{
			"buffer":0,
			"byteLength":24,
			"byteOffset":26820
		},
		{
			"buffer":0,
			"byteLength":320,
			"byteOffset":26844
		}
	],
	"samplers":[
		{
			"magFilter":9729,
			"minFilter":9987
		}
	],
	"buffers":[
		{
			"byteLength":27164,
			"uri":"data:application/octet-stream;base64,"
		}
	]
}
